<svg xmlns="http://www.w3.org/2000/svg" xmlns:xlink="http://www.w3.org/1999/xlink" version="1.1" x="0px" y="0px" viewBox="0 0 100 100" style="enable-background:new 0 0 100 100;" xml:space="preserve"><style type="text/css">
	.st0{fill:none;}
	.st1{fill:#FFFFFF;}
</style><path d="M50,12.3c-14.1,0-25.5,11.4-25.5,25.6c0,3.7,0.8,7.1,2.1,10.3l22,42.7c0.6,1.2,2.2,1.2,2.8,0l22-42.7  c1.4-3.1,2.1-6.6,2.1-10.3C75.5,23.7,64.1,12.3,50,12.3z M50,58.4c-11.4,0-20.7-9.3-20.7-20.7C29.3,26.3,38.6,17,50,17  s20.7,9.3,20.7,20.7C70.7,49.1,61.4,58.4,50,58.4z"/><path d="M63.1,41.1l-0.6-14.5h0c0-0.8-0.7-1.5-1.5-1.5h-6.5v-0.6c0-0.6-0.5-1-1-1h-6.9c-0.6,0-1,0.5-1,1v0.6H39  c-0.8,0-1.5,0.7-1.5,1.5l-0.6,14.5c0,0.6,0,1.5,0,2v4.1c0,0.8,0.7,1.5,1.5,1.5h0v1c0,0.8,0.7,1.5,1.5,1.5h1.8c0.8,0,1.5-0.7,1.5-1.5  v-1h13.7v1c0,0.8,0.7,1.5,1.5,1.5h1.8c0.8,0,1.5-0.7,1.5-1.5v-1h0c0.8,0,1.5-0.7,1.5-1.5v-4.1C63.2,42.6,63.2,41.7,63.1,41.1z   M40.7,44.6c-0.8,0-1.5-0.7-1.5-1.5s0.7-1.5,1.5-1.5s1.5,0.7,1.5,1.5S41.5,44.6,40.7,44.6z M40.5,40c-0.5,0-0.9-0.3-0.9-0.7L39.8,28  c0-0.4,0.4-0.7,0.9-0.7h18.7c0.5,0,0.9,0.3,0.9,0.7l0.2,11.3c0,0.4-0.4,0.7-0.9,0.7H40.5z M59.3,44.6c-0.8,0-1.5-0.7-1.5-1.5  s0.7-1.5,1.5-1.5c0.8,0,1.5,0.7,1.5,1.5S60.1,44.6,59.3,44.6z"/></svg>