<svg xmlns="http://www.w3.org/2000/svg" xmlns:xlink="http://www.w3.org/1999/xlink" version="1.1" x="0px" y="0px" viewBox="0 0 100 125" style="enable-background:new 0 0 100 100;" xml:space="preserve"><path d="M80.3,23.6L80.3,23.6c0-2-1.7-3.7-3.7-3.7H60.8v-1.5c0-1.5-1.2-2.5-2.4-2.5H41.6c-1.5,0-2.4,1.2-2.4,2.5v1.5H23.1  c-1.9,0-3.7,1.7-3.7,3.7c0,0-1.5,39.3-1.5,40.5v10.1c0,2,1.7,3.7,3.7,3.7l0,0v2.5c0,2,1.7,3.7,3.7,3.7h4.4c1.9,0,3.7-1.7,3.7-3.7  v-2.5h33.3v2.5c0,2,1.7,3.7,3.7,3.7h4.4c1.9,0,3.7-1.7,3.7-3.7v-2.5l0,0c1.9,0,3.7-1.7,3.7-3.7V64.1C82,62.9,80.3,23.6,80.3,23.6z   M27.2,71c-2.1,0-4-1.9-4-4s1.9-4,4-4s4,1.9,4,4S29.4,71,27.2,71z M26.8,56.5c-1.2,0-2.2-0.7-2.2-1.7L25.1,27c0-1,1-1.7,2.2-1.7  h45.5c1.2,0,2.2,0.7,2.2,1.7l0.5,27.7c0,1-1,1.7-2.2,1.7H26.8z M72.5,71c-2.1,0-4-1.9-4-4s1.9-4,4-4s4,1.9,4,4S74.6,71,72.5,71z"/><text x="0" y="115" fill="#000000" font-size="5px" font-weight="bold" font-family="'Helvetica Neue', Helvetica, Arial-Unicode, Arial, Sans-serif">Created by Eliricon</text><text x="0" y="120" fill="#000000" font-size="5px" font-weight="bold" font-family="'Helvetica Neue', Helvetica, Arial-Unicode, Arial, Sans-serif">from the Noun Project</text></svg>