<svg xmlns="http://www.w3.org/2000/svg" data-name="Layer 1" viewBox="0 0 100 125" x="0px" y="0px"><title>Pointer transp-</title><path d="M50,12.26A25.56,25.56,0,0,0,26.61,48.08l22,42.74a1.56,1.56,0,0,0,2.82,0l22-42.74A25.56,25.56,0,0,0,50,12.26ZM50,58.4A20.71,20.71,0,1,1,70.71,37.7,20.71,20.71,0,0,1,50,58.4Z"/><path d="M46.46,21.91h2.45v2.6h2.18v-2.6h2.45a0.67,0.67,0,0,0,.67-0.67V20.4a0.67,0.67,0,0,0-.67-0.67H46.46a0.67,0.67,0,0,0-.67.67v0.84A0.67,0.67,0,0,0,46.46,21.91Z"/><path d="M37.93,51.68a1,1,0,1,0,1.41,1.42l6.05-6-2.44-.4Z"/><path d="M62.07,51.68l-5-5-2.45.39,6.06,6A1,1,0,0,0,62.07,51.68Z"/><path d="M60.22,38.33L59.74,27.07a1.56,1.56,0,0,0-1.54-1.48H41.8a1.56,1.56,0,0,0-1.54,1.48L39.78,38.33c0,0.57,0,1.49,0,2.05l0.29,3.78a1.77,1.77,0,0,0,1.51,1.58l7.34,0.89a10.35,10.35,0,0,0,2.11,0l7.34-.89a1.77,1.77,0,0,0,1.51-1.58l0.28-3.78C60.23,39.82,60.24,38.9,60.22,38.33ZM45.93,40.76a1.38,1.38,0,1,1,.4-1A1.38,1.38,0,0,1,45.93,40.76Zm10.1,0a1.38,1.38,0,1,1,.4-1A1.38,1.38,0,0,1,56,40.76Zm2.17-4.24a0.7,0.7,0,0,1-.5.2H42.3a0.7,0.7,0,0,1-.49-0.2,0.67,0.67,0,0,1-.2-0.49l0.06-4.15,0.06-4.15a0.67,0.67,0,0,1,.21-0.47,0.7,0.7,0,0,1,.49-0.2H57.57a0.7,0.7,0,0,1,.49.2,0.67,0.67,0,0,1,.21.47l0.06,4.15L58.39,36A0.67,0.67,0,0,1,58.19,36.52Z"/><text x="0" y="115" fill="#000000" font-size="5px" font-weight="bold" font-family="'Helvetica Neue', Helvetica, Arial-Unicode, Arial, Sans-serif">Created by Eliricon</text><text x="0" y="120" fill="#000000" font-size="5px" font-weight="bold" font-family="'Helvetica Neue', Helvetica, Arial-Unicode, Arial, Sans-serif">from the Noun Project</text></svg>